<svg xmlns="http://www.w3.org/2000/svg" viewBox="0 0 30 20">
  <path fill="#DE2910" d="M0 0h30v20H0z"/>
  <path transform="translate(4)" fill="#FFDE00" d="m5 2 1.12 3.45h3.63L6.82 7.58l1.12 3.45L5 8.9l-2.94 2.13 1.12-3.45L.25 5.45h3.63L5 2zm6.1.45.34 1.04h1.09l-.88.64.34 1.04-.89-.64-.88.64.34-1.04-.89-.64h1.1l.33-1.04zm2.4 2.6.34 1.04h1.09l-.88.64.34 1.04-.89-.64-.88.64.34-1.04-.89-.64h1.1l.33-1.04zm-.15 3.55.34 1.04h1.09l-.88.64.34 1.04-.89-.64-.88.64.34-1.04-.89-.64h1.1l.33-1.04zm-2.3 2.45.34 1.04h1.09l-.88.64.34 1.04-.89-.64-.88.64.34-1.04-.89-.64h1.1l.33-1.04z"/>
</svg>
