<svg xmlns="http://www.w3.org/2000/svg" viewBox="0 0 30 20">
  <path fill="#fff" d="M0 0h30v20H0z"/>
  <g transform="translate(15 10) rotate(33.69)">
    <path fill="#CD2E3A" d="M-4 0a4 4 0 0 1 8 0 2 2 0 0 0-4 0 2 2 0 0 1-4 0z"/>
    <path fill="#0047A0" d="M4 0a4 4 0 0 1-8 0 2 2 0 0 0 4 0 2 2 0 0 1 4 0z"/>
  </g>
  <g fill="#000" transform="translate(3 2) scale(.8)">
    <path d="m5.2 3.2.7-.5 2.2 3.1-.7.5zm1.2-.9.7-.5 2.2 3.1-.7.5zm1.2-.9.7-.5L10.5 4l-.7.5zM20 16l.7-.5 2.2 3.1-.7.5zm1.2-.9.7-.5 2.2 3.1-.7.5zm1.2-.9.7-.5 2.2 3.1-.7.5zM4.8 16.8l2.2-3.1.7.5-2.2 3.1zm1.2.9 2.2-3.1.7.5-2.2 3.1zm1.2.9 2.2-3.1.7.5-2.2 3.1zM20 4l2.2-3.1.7.5-2.2 3.1zm1.2.9 2.2-3.1.7.5-2.2 3.1zm1.2.9 2.2-3.1.7.5-2.2 3.1z"/>
  </g>
</svg>
